<?xml version="1.0" encoding="UTF-8"?>
<svg width="32" height="32" viewBox="0 0 100 100" xmlns="http://www.w3.org/2000/svg" xmlns:svg="http://www.w3.org/2000/svg" version="1.1">
 <defs>
  <linearGradient id="a" x1="0.56" x2="-0.12" y1="0.77" y2="-0.11">
   <stop offset="0" stop-color="#6c56cc"/>
   <stop offset="1" stop-color="#9785e5"/>
  </linearGradient>
 </defs>
 <g class="layer">
  <title>Layer 1</title>
  <path d="m62.58,24.78l-33.01,43.38l34.22,0l0,7.23l-45.79,0l0,-5.78l33.02,-43.37l-31.33,0l0,-7.23l42.89,0l0,5.78z" fill="#e52e3d" id="svg_7" transform="matrix(1 0 0 1 0 0)"/>
  <g id="svg_6">
   <polygon fill="#34208c" id="svg_1" points="77.41900634765625,28 57.2243766784668,39.16120147705078 49,56.95414733886719 61.4671630859375,85.63434600830078 79.16454315185547,91.70548248291016 82.40715026855469,85.20751953125 89.13445281982422,44.81187438964844 77.41900634765625,28 "/>
   <polygon fill="url(#a)" id="svg_2" points="89.13445281982422,44.81187438964844 76.67366790771484,37.179962158203125 59.46681213378906,50.742862701416016 79.16454315185547,91.70548248291016 82.40715026855469,85.20751953125 89.13445281982422,44.81187438964844 "/>
   <polygon fill="#af9ff4" id="svg_3" points="89.13445281982422,44.81187438964844 89.13445281982422,44.81187438964844 77.41900634765625,28 76.67366790771484,37.179962158203125 89.13445281982422,44.81187438964844 "/>
   <polygon fill="#4a37a0" id="svg_4" points="76.67366790771484,37.179962158203125 77.41900634765625,28 57.2243766784668,39.16120147705078 59.46681213378906,50.742862701416016 76.67366790771484,37.179962158203125 "/>
   <polygon fill="#4a37a0" id="svg_5" points="59.46681213378906,50.742862701416016 61.4671630859375,85.63434600830078 79.16454315185547,91.70548248291016 59.46681213378906,50.742862701416016 "/>
  </g>
 </g>
</svg>